<svg xmlns="http://www.w3.org/2000/svg" viewBox="0 0 200 220" fill="none">
  <!-- Soft base -->
  <ellipse cx="100" cy="200" rx="48" ry="12" fill="#2a2a2a" opacity="0.55"/>
  <!-- Body -->
  <ellipse cx="100" cy="125" rx="62" ry="68" fill="#39ff14"/>
  <ellipse cx="100" cy="132" rx="48" ry="52" fill="#2fd612" opacity="0.35"/>
  <!-- Belly -->
  <ellipse cx="100" cy="145" rx="34" ry="38" fill="#b8ff8a"/>
  <!-- Face -->
  <circle cx="78" cy="108" r="16" fill="#fff"/>
  <circle cx="122" cy="108" r="16" fill="#fff"/>
  <circle cx="82" cy="110" r="7" fill="#1a1a1a"/>
  <circle cx="126" cy="110" r="7" fill="#1a1a1a"/>
  <circle cx="84" cy="108" r="2.5" fill="#fff"/>
  <circle cx="128" cy="108" r="2.5" fill="#fff"/>
  <!-- Cheeks -->
  <ellipse cx="62" cy="122" rx="8" ry="5" fill="#ff69b4" opacity="0.55"/>
  <ellipse cx="138" cy="122" rx="8" ry="5" fill="#ff69b4" opacity="0.55"/>
  <!-- Smile -->
  <path d="M84 132 Q100 148 116 132" stroke="#1a1a1a" stroke-width="4" stroke-linecap="round"/>
  <!-- Pencil -->
  <g transform="translate(138 150) rotate(25)">
    <rect x="0" y="0" width="8" height="36" rx="2" fill="#ffd700"/>
    <polygon points="0,36 8,36 4,46" fill="#ff69b4"/>
    <rect x="0" y="-6" width="8" height="8" rx="1" fill="#fff"/>
  </g>
  <!-- Antenna / hair tuft with M -->
  <circle cx="100" cy="52" r="18" fill="#39ff14"/>
  <text x="100" y="59" text-anchor="middle" font-family="Arial Black, sans-serif" font-size="18" font-weight="900" fill="#111">M</text>
</svg>
